<?xml version="1.0" encoding="UTF-8"?>
<svg width="83px" height="16px" viewBox="0 0 83 16" version="1.1" xmlns="http://www.w3.org/2000/svg" xmlns:xlink="http://www.w3.org/1999/xlink">
    <!-- Generator: Sketch 55.2 (78181) - https://sketchapp.com -->
    <title>realme_u1</title>
    <desc>Created with Sketch.</desc>
    <g id="realme_u1" stroke="none" stroke-width="1" fill="none" fill-rule="evenodd">
        <g transform="translate(68.000000, 3.000000)" fill="#050101" id="编组-4">
            <g>
                <g id="model">
                    <g id="产品型号">
                        <g id="Group-20">
                            <g id="编组" transform="translate(0.804598, 0.294118)">
                                <path d="M1.30765299,7.54799176 L1.30765299,0.624255842 L0.0398293435,0.624255842 L0.0398293435,7.60838163 C0.0398293435,9.81661393 1.61732256,11.2994401 3.96425358,11.2994401 C6.30244098,11.2994401 7.87410512,9.81661393 7.87410512,7.60838163 L7.87410512,0.624255842 L6.62085416,0.624255842 L6.62085416,7.54799176 C6.62085416,9.1239493 5.62845427,10.0639941 3.96425358,10.0639941 C2.30078151,10.0639941 1.30765299,9.1239493 1.30765299,7.54799176" id="Fill-1"></path>
                                <polygon id="Fill-3" points="9.56315225 2.6463709 11.8503353 1.97189599 11.8503353 11.102409 13.1035862 11.102409 13.1035862 0.62440136 11.9720172 0.62440136 9.25202541 1.56953933"></polygon>
                            </g>
                        </g>
                    </g>
                </g>
            </g>
        </g>
        <g id="realme_3" fill="#000000">
            <g id="编组-4">
                <g id="model">
                    <g id="产品型号">
                        <g id="Group-20">
                            <path d="M8.18537614,8.85810521 C8.58451612,6.76970937 10.3374246,5.51696979 12.2226281,5.51696979 C14.1521805,5.51696979 15.7058948,6.79205312 15.9712365,8.85810521 L8.18537614,8.85810521 Z M12.2677287,4.19794375 C8.91826027,4.19794375 6.69931263,6.70342292 6.69931263,9.8687875 C6.69931263,12.9902094 8.76266334,15.5180323 12.2226281,15.5180323 C14.5077232,15.5180323 16.1268334,14.4850062 17.0807103,12.8583812 L15.8389415,12.0674125 C15.0850104,13.341751 14.0198855,14.1990062 12.2226281,14.1990062 C9.82778827,14.1990062 8.16357754,12.3526677 8.14102726,10.1108448 L17.4137028,10.1108448 L17.4137028,9.71536042 C17.3919042,6.22005312 15.106809,4.19794375 12.2677287,4.19794375 L12.2677287,4.19794375 Z" id="Fill-3"></path>
                            <g id="Group-7" transform="translate(0.000000, 4.389951)">
                                <polygon id="Fill-5" points="-0.000150335206 0.00595833333 -0.000150335206 10.9961042 1.44156429 10.9961042 1.44156429 1.32498438 6.65518925 1.32498438 6.65518925 0.00595833333"></polygon>
                            </g>
                            <path d="M54.6938272,8.85810521 C55.0929672,6.76970937 56.845124,5.51696979 58.7310792,5.51696979 C60.6606316,5.51696979 62.2143459,6.79205312 62.4796876,8.85810521 L54.6938272,8.85810521 Z M63.9214022,9.71536042 C63.8996036,6.22005312 61.6152601,4.19794375 58.7754281,4.19794375 C55.4259597,4.19794375 53.207012,6.70342292 53.207012,9.8687875 C53.207012,12.9902094 55.2711144,15.5180323 58.7310792,15.5180323 C61.0161743,15.5180323 62.6352845,14.4850062 63.5891614,12.8583812 L62.3473926,12.0674125 C61.5927098,13.341751 60.5283366,14.1990062 58.7310792,14.1990062 C56.3354877,14.1990062 54.6720286,12.3526677 54.6494783,10.1108448 L63.9214022,10.1108448 L63.9214022,9.71536042 Z" id="Fill-8"></path>
                            <path d="M47.6586657,4.24203542 C46.1275017,4.24203542 44.7526862,4.92351979 43.9536546,6.22020208 C43.3545688,5.07769167 42.2676453,4.24203542 40.5598373,4.24203542 C39.2504177,4.24203542 38.0529977,4.74774896 37.2990667,5.84631667 L37.2990667,4.39620729 L35.8573521,4.39620729 L35.8573521,15.3640094 L37.2990667,15.3640094 L37.2990667,8.28625417 C37.2990667,6.63803021 38.8076805,5.56106146 40.2268448,5.56106146 C42.0459008,5.56106146 43.022328,6.90168646 43.022328,8.68173854 L43.022328,15.3640094 L44.4640426,15.3640094 L44.4640426,8.46276979 C44.4640426,6.33043125 46.0395556,5.56106146 47.4361696,5.56106146 C49.2108768,5.56106146 50.2534514,6.90168646 50.2534514,8.68173854 L50.2534514,15.3640094 L51.6959177,15.3640094 L51.6959177,8.68173854 C51.6959177,5.97888958 50.2098542,4.24203542 47.6586657,4.24203542" id="Fill-10"></path>
                            <path d="M24.3214552,14.1330922 C21.9258637,14.1330922 20.2398543,12.2428109 20.2398543,9.9131026 C20.2398543,7.56105052 21.9258637,5.67076927 24.3214552,5.67076927 C26.7177984,5.67076927 28.3587071,7.34133698 28.3587071,9.9131026 C28.3587071,12.4625245 26.7177984,14.1330922 24.3214552,14.1330922 L24.3214552,14.1330922 Z M28.1369627,5.69236823 C27.2056361,4.7919151 25.8518676,4.24225885 24.4101529,4.24225885 C21.1275837,4.24225885 18.7981397,6.70379531 18.7981397,9.9131026 C18.7981397,13.1224099 21.1275837,15.5616026 24.4101529,15.5616026 C25.8518676,15.5616026 27.2056361,15.0342901 28.1369627,14.1114932 L28.1369627,15.3858318 L29.5568787,15.3858318 L29.5568787,4.41802969 L28.1369627,4.41802969 L28.1369627,5.69236823 Z" id="Fill-12"></path>
                            <polygon id="Fill-14" points="31.9860702 15.3644563 33.4285365 15.3644563 33.4285365 0.000148958333 31.9860702 0.000148958333"></polygon>
                        </g>
                    </g>
                </g>
            </g>
        </g>
    </g>
</svg>