<?xml version="1.0" encoding="UTF-8"?>
<svg width="92px" height="16px" viewBox="0 0 92 16" version="1.1" xmlns="http://www.w3.org/2000/svg" xmlns:xlink="http://www.w3.org/1999/xlink">
    <!-- Generator: Sketch 55.2 (78181) - https://sketchapp.com -->
    <title>编组 4</title>
    <desc>Created with Sketch.</desc>
    <g id="组件" stroke="none" stroke-width="1" fill="none" fill-rule="evenodd">
        <g id="realme_c2">
            <g id="编组-4">
                <g id="model" fill="#000000">
                    <g id="产品型号">
                        <g id="Group-20">
                            <path d="M8.39260086,8.85810521 C8.80184564,6.76970937 10.5991316,5.51696979 12.5320617,5.51696979 C14.5104635,5.51696979 16.1035124,6.79205312 16.3755716,8.85810521 L8.39260086,8.85810521 Z M12.5783041,4.19794375 C9.14403901,4.19794375 6.86891548,6.70342292 6.86891548,9.8687875 C6.86891548,12.9902094 8.98450291,15.5180323 12.5320617,15.5180323 C14.8750074,15.5180323 16.5351077,14.4850062 17.5131333,12.8583812 L16.2399274,12.0674125 C15.4669094,13.341751 14.3748193,14.1990062 12.5320617,14.1990062 C10.076593,14.1990062 8.37025039,12.3526677 8.34712921,10.1108448 L17.854556,10.1108448 L17.854556,9.71536042 C17.8322055,6.22005312 15.4892599,4.19794375 12.5783041,4.19794375 L12.5783041,4.19794375 Z" id="Fill-3"></path>
                            <g id="Group-7" transform="translate(0.000000, 4.389951)">
                                <polygon id="Fill-5" points="-0.000154141161 0.00595833333 -0.000154141161 10.9961042 1.47805959 10.9961042 1.47805959 1.32498438 6.82367505 1.32498438 6.82367505 0.00595833333"></polygon>
                            </g>
                            <path d="M56.0784811,8.85810521 C56.4877259,6.76970937 58.2842411,5.51696979 60.217942,5.51696979 C62.1963438,5.51696979 63.7893927,6.79205312 64.0614518,8.85810521 L56.0784811,8.85810521 Z M65.5396655,9.71536042 C65.5173151,6.22005312 63.1751401,4.19794375 60.2634136,4.19794375 C56.8291485,4.19794375 54.554025,6.70342292 54.554025,9.8687875 C54.554025,12.9902094 56.6703831,15.5180323 60.217942,15.5180323 C62.5608876,15.5180323 64.2209879,14.4850062 65.1990136,12.8583812 L63.9258076,12.0674125 C63.152019,13.341751 62.0606995,14.1990062 60.217942,14.1990062 C57.7617026,14.1990062 56.0561306,12.3526677 56.0330094,10.1108448 L65.5396655,10.1108448 L65.5396655,9.71536042 Z" id="Fill-8"></path>
                            <path d="M48.8652142,4.24203542 C47.2952865,4.24203542 45.8856656,4.92351979 45.0664053,6.22020208 C44.4521528,5.07769167 43.3377122,4.24203542 41.5866686,4.24203542 C40.2440991,4.24203542 39.0163648,4.74774896 38.2433469,5.84631667 L38.2433469,4.39620729 L36.7651331,4.39620729 L36.7651331,15.3640094 L38.2433469,15.3640094 L38.2433469,8.28625417 C38.2433469,6.63803021 39.7901534,5.56106146 41.245246,5.56106146 C43.110354,5.56106146 44.1115008,6.90168646 44.1115008,8.68173854 L44.1115008,15.3640094 L45.5897146,15.3640094 L45.5897146,8.46276979 C45.5897146,6.33043125 47.2051139,5.56106146 48.6370853,5.56106146 C50.4567217,5.56106146 51.5256907,6.90168646 51.5256907,8.68173854 L51.5256907,15.3640094 L53.0046751,15.3640094 L53.0046751,8.68173854 C53.0046751,5.97888958 51.4809897,4.24203542 48.8652142,4.24203542" id="Fill-10"></path>
                            <path d="M24.9371882,14.1330922 C22.4809488,14.1330922 20.7522557,12.2428109 20.7522557,9.9131026 C20.7522557,7.56105052 22.4809488,5.67076927 24.9371882,5.67076927 C27.3941983,5.67076927 29.0766491,7.34133698 29.0766491,9.9131026 C29.0766491,12.4625245 27.3941983,14.1330922 24.9371882,14.1330922 L24.9371882,14.1330922 Z M28.8492909,5.69236823 C27.8943864,4.7919151 26.5063452,4.24225885 25.0281315,4.24225885 C21.6624593,4.24225885 19.274042,6.70379531 19.274042,9.9131026 C19.274042,13.1224099 21.6624593,15.5616026 25.0281315,15.5616026 C26.5063452,15.5616026 27.8943864,15.0342901 28.8492909,14.1114932 L28.8492909,15.3858318 L30.3051541,15.3858318 L30.3051541,4.41802969 L28.8492909,4.41802969 L28.8492909,5.69236823 Z" id="Fill-12"></path>
                            <polygon id="Fill-14" points="32.7958441 15.3644563 34.2748285 15.3644563 34.2748285 0.000148958333 32.7958441 0.000148958333"></polygon>
                        </g>
                    </g>
                </g>
                <g id="编组" transform="translate(73.000000, 3.458217)" fill="#050101">
                    <path d="M9.47564262,3.75852185 L10.6744344,3.06294563 C9.71263098,1.42711039 7.89136005,0.413754318 5.90619781,0.413754318 C2.5906691,0.413754318 0.0899802353,2.89289879 0.0899802353,6.181497 C0.0899802353,9.47009522 2.5906691,11.9500091 5.90619781,11.9500091 C7.90213225,11.9500091 9.72340318,10.9297281 10.6744344,9.28465952 L9.47564262,8.60370271 C8.80853578,9.8209611 7.41430556,10.6050232 5.90619781,10.6050232 C3.32471746,10.6050232 1.45035498,8.74451073 1.45035498,6.181497 C1.45035498,3.60924996 3.32471746,1.74181247 5.90619781,1.74181247 C7.44046661,1.74181247 8.80314968,2.51356352 9.47564262,3.75852185" id="Fill-1"></path>
                    <path d="M16.6238425,7.4430753 C17.5464043,6.51974403 18.6066964,5.26939959 18.6066964,3.78976123 C18.6066964,2.1216094 17.4309879,0.432682609 15.1849846,0.432682609 C13.6661047,0.432682609 12.4142213,1.19981701 11.7386506,2.54018624 L12.8574204,3.2003681 C13.3444776,2.23317859 14.1531619,1.72303806 15.2003735,1.72303806 C16.1960324,1.72303806 17.2678661,2.37475605 17.2678661,3.80591953 C17.2678661,4.83851167 16.4530262,5.79185121 15.6558836,6.58899387 L11.7147979,10.610871 L11.7147979,11.7219463 L18.8159848,11.7219463 L18.8159848,10.4315909 L13.6183992,10.4315909 L16.6238425,7.4430753 Z" id="Fill-3"></path>
                </g>
            </g>
        </g>
    </g>
</svg>