<svg xmlns="http://www.w3.org/2000/svg" viewBox="0 0 132.17 20.89"><defs><style>.cls-1{fill:#040000;}</style></defs><title>realme5 pro</title><g id="图层_2" data-name="图层 2"><g id="图层_1-2" data-name="图层 1"><path class="cls-1" d="M115.34,9.24h-2.66v8h1V13.94h1.66a2.37,2.37,0,1,0,0-4.7Zm0,3.77h-1.66V10.17h1.66c1,0,1.67.55,1.67,1.43S116.37,13,115.34,13Z"/><path class="cls-1" d="M120,12.19v-.63h-.93v5.66H120V13.56a1.35,1.35,0,0,1,1.46-1.14h.57V11.5h-.48A2,2,0,0,0,120,12.19Z"/><path class="cls-1" d="M125.38,11.45a2.94,2.94,0,1,0,3,2.94A2.9,2.9,0,0,0,125.38,11.45Zm0,5a2,2,0,0,1-2-2.08,2.05,2.05,0,1,1,4.1,0A2,2,0,0,1,125.38,16.47Z"/><path class="cls-1" d="M129.37,5.91H111.29a2.8,2.8,0,0,0-2.79,2.8v9.15a2.8,2.8,0,0,0,2.79,2.8h18.08a2.81,2.81,0,0,0,2.8-2.8V8.71A2.81,2.81,0,0,0,129.37,5.91ZM109.5,8.71a1.79,1.79,0,0,1,1.79-1.79h18.08a1.79,1.79,0,0,1,1.79,1.79v9.15a1.8,1.8,0,0,1-1.79,1.8H111.29a1.8,1.8,0,0,1-1.79-1.8Z"/><path class="cls-1" d="M97,11.53v-.08l.26-3.88h6.3V5.88H95.63l-.54,7.4,4.09.11c1.92,0,3.16,1.1,3.16,2.82S101.08,19,99.14,19a3.11,3.11,0,0,1-3.25-2.15l-1.53.87a4.82,4.82,0,0,0,4.78,3.05c2.4,0,5-1.43,5-4.56s-2.54-4.57-4.91-4.57Z"/><path class="cls-1" d="M16.32,5.64a7.26,7.26,0,0,0-7.41,7.61c0,4.19,2.75,7.59,7.35,7.59a7.06,7.06,0,0,0,6.46-3.58L21.07,16.2a5.19,5.19,0,0,1-4.81,2.86,5.36,5.36,0,0,1-5.43-5.48H23.17V13C23.14,8.35,20.1,5.64,16.32,5.64Zm-5.43,6.25a5.41,5.41,0,0,1,5.37-4.48,4.9,4.9,0,0,1,5,4.48Z"/><polygon class="cls-1" points="0 5.9 0 20.66 1.92 20.66 1.92 7.67 8.85 7.67 8.85 5.9 0 5.9"/><path class="cls-1" d="M85,13c0-4.69-3.07-7.4-6.85-7.4a7.26,7.26,0,0,0-7.4,7.61c0,4.19,2.74,7.59,7.34,7.59a7.08,7.08,0,0,0,6.47-3.58L82.94,16.2a5.19,5.19,0,0,1-4.81,2.86,5.37,5.37,0,0,1-5.43-5.48H85ZM72.76,11.89a5.41,5.41,0,0,1,5.37-4.48,4.89,4.89,0,0,1,5,4.48Z"/><path class="cls-1" d="M63.4,5.7a5.63,5.63,0,0,0-4.93,2.65A4.78,4.78,0,0,0,54,5.7a5,5,0,0,0-4.34,2.15V5.9H47.7V20.63h1.92v-9.5a3.82,3.82,0,0,1,3.9-3.66c2.42,0,3.71,1.8,3.71,4.19v9h1.92V11.36a3.68,3.68,0,0,1,4-3.89c2.36,0,3.75,1.8,3.75,4.19v9h1.91v-9C68.77,8,66.8,5.7,63.4,5.7Z"/><path class="cls-1" d="M37.43,7.64a7.13,7.13,0,0,0-5-1.94A7.32,7.32,0,0,0,25,13.31a7.3,7.3,0,0,0,7.46,7.58,7,7,0,0,0,5-1.94v1.71h1.89V5.93H37.43ZM32.36,19a5.44,5.44,0,0,1-5.43-5.67,5.44,5.44,0,0,1,5.43-5.7c3.18,0,5.37,2.25,5.37,5.7S35.54,19,32.36,19Z"/><rect class="cls-1" x="42.55" width="1.92" height="20.63"/></g></g></svg>