<?xml version="1.0" encoding="UTF-8"?>
<svg width="111px" height="22px" viewBox="0 0 111 22" version="1.1" xmlns="http://www.w3.org/2000/svg" xmlns:xlink="http://www.w3.org/1999/xlink">
    <!-- Generator: Sketch 52.5 (67469) - http://www.bohemiancoding.com/sketch -->
    <title>编组 5</title>
    <desc>Created with Sketch.</desc>
    <g id="车厘子" stroke="none" stroke-width="1" fill="none" fill-rule="evenodd">
        <g id="web-home复制" transform="translate(-905.000000, -261.000000)">
            <g id="banner_1_home" transform="translate(0.000000, 44.000000)">
                <g id="banner_product_theme_light_home" transform="translate(845.000000, 217.000000)">
                    <g id="编组-5" transform="translate(60.000000, 0.000000)">
                        <g id="编组" transform="translate(93.437500, 5.750000)" fill="#030100">
                            <g id="编组-2">
                                <polygon id="Fill-13" points="0 0 2.6884542 0.0157828283 9.84414673 7.1875 7.3902739 7.1875"></polygon>
                                <polygon id="Fill-14" points="9.8597261 7.1875 7.39883423 7.1875 14.5756101 0 17.25 0"></polygon>
                                <polygon id="Fill-15" points="17.3787842 15.8125 14.5615458 15.7977694 7.41143799 8.62710438 9.90524292 8.625"></polygon>
                                <polygon id="Fill-16" points="7.3902739 8.625 9.88735962 8.625 2.67438985 15.8125 0 15.8125"></polygon>
                            </g>
                        </g>
                        <g id="产品型号" fill="#000000">
                            <g id="Group-20">
                                <path d="M11.4063075,12.3537654 C11.9625084,9.44122922 14.4051834,7.69412297 17.0322112,7.69412297 C19.7210391,7.69412297 21.8861373,9.47239045 22.2558905,12.3537654 L11.4063075,12.3537654 Z M17.0950587,5.85457174 C12.4275803,5.85457174 9.33548058,9.34878424 9.33548058,13.7632917 C9.33548058,18.1165154 12.2107562,21.6418892 17.0322112,21.6418892 C20.2164873,21.6418892 22.4727145,20.2012017 23.8019403,17.9326642 L22.0715376,16.8295567 C21.020936,18.6067854 19.5366862,19.8023379 17.0322112,19.8023379 C13.695006,19.8023379 11.3759312,17.2273817 11.3445074,14.1008717 L24.2659648,14.1008717 L24.2659648,13.5493179 C24.2355884,8.67466298 21.0513123,5.85457174 17.0950587,5.85457174 Z" id="Fill-3"></path>
                                <g id="Group-7" transform="translate(0.000000, 6.122351)">
                                    <polygon id="Fill-5" points="-0.00020949185 0.00830966112 -0.00020949185 15.3354796 2.00881735 15.3354796 2.00881735 1.84786089 9.27399473 1.84786089 9.27399473 0.00830966112"></polygon>
                                </g>
                                <path d="M76.2157538,12.3537654 C76.7719547,9.44122922 79.2135822,7.69412297 81.8416575,7.69412297 C84.5304854,7.69412297 86.6955837,9.47239045 87.0653368,12.3537654 L76.2157538,12.3537654 Z M89.0743636,13.5493179 C89.0439873,8.67466298 85.8607586,5.85457174 81.9034576,5.85457174 C77.2359791,5.85457174 74.1438794,9.34878424 74.1438794,13.7632917 C74.1438794,18.1165154 77.0202025,21.6418892 81.8416575,21.6418892 C85.0259336,21.6418892 87.2821608,20.2012017 88.6113866,17.9326642 L86.8809839,16.8295567 C85.8293349,18.6067854 84.3461326,19.8023379 81.8416575,19.8023379 C78.5034048,19.8023379 76.1853775,17.2273817 76.1539537,14.1008717 L89.0743636,14.1008717 L89.0743636,13.5493179 Z" id="Fill-8"></path>
                                <path d="M66.4122685,5.91606323 C64.278594,5.91606323 62.362791,6.86648072 61.2493418,8.67487073 C60.4145168,7.08149321 58.8998907,5.91606323 56.5200633,5.91606323 C54.6953893,5.91606323 53.0267867,6.62134572 51.976185,8.15343949 L51.976185,6.13107572 L49.9671582,6.13107572 L49.9671582,21.4270844 L51.976185,21.4270844 L51.976185,11.5562457 C51.976185,9.25758571 54.0784358,7.75561446 56.0560388,7.75561446 C58.5908902,7.75561446 59.9515398,9.62528822 59.9515398,12.1077995 L59.9515398,21.4270844 L61.9605666,21.4270844 L61.9605666,11.8024194 C61.9605666,8.82859946 64.1560412,7.75561446 66.1022205,7.75561446 C68.5752718,7.75561446 70.0280978,9.62528822 70.0280978,12.1077995 L70.0280978,21.4270844 L72.0381721,21.4270844 L72.0381721,12.1077995 C72.0381721,8.33832945 69.9673452,5.91606323 66.4122685,5.91606323" id="Fill-10"></path>
                                <path d="M33.8919058,19.7104123 C30.5536532,19.7104123 28.2042021,17.0741723 28.2042021,13.8250948 C28.2042021,10.5448561 30.5536532,7.9086161 33.8919058,7.9086161 C37.2312059,7.9086161 39.5178094,10.2384373 39.5178094,13.8250948 C39.5178094,17.3805911 37.2312059,19.7104123 33.8919058,19.7104123 Z M39.208809,7.93873862 C37.911007,6.68294108 36.0245328,5.91637485 34.015506,5.91637485 C29.4412514,5.91637485 26.1951752,9.3493036 26.1951752,13.8250948 C26.1951752,18.300886 29.4412514,21.7026536 34.015506,21.7026536 C36.0245328,21.7026536 37.911007,20.9672485 39.208809,19.6802898 L39.208809,21.4575186 L41.1874595,21.4575186 L41.1874595,6.16150985 L39.208809,6.16150985 L39.208809,7.93873862 Z" id="Fill-12"></path>
                                <polygon id="Fill-14" points="44.5725336 21.4277076 46.5826079 21.4277076 46.5826079 0.000207741528 44.5725336 0.000207741528"></polygon>
                            </g>
                        </g>
                    </g>
                </g>
            </g>
        </g>
    </g>
</svg>