<?xml version="1.0" encoding="utf-8"?>
<!-- Generator: Adobe Illustrator 22.0.1, SVG Export Plug-In . SVG Version: 6.00 Build 0)  -->
<svg version="1.1" id="图层_1" xmlns="http://www.w3.org/2000/svg" xmlns:xlink="http://www.w3.org/1999/xlink" x="0px" y="0px"
	 viewBox="0 0 161.2 31.1" style="enable-background:new 0 0 161.2 31.1;" xml:space="preserve">
<style type="text/css">
	.st0{fill:#FFFFFF;}
</style>
<title>realme5i_黑</title>
<path class="st0" d="M144.2,17.2v-0.1l0.4-5.8h9.4V8.8h-11.7l-0.8,11l6.1,0.1c2.9,0,4.7,1.7,4.7,4.2s-1.9,4.2-4.8,4.2
	c-2.5,0-4.2-1.2-4.9-3.2l-2.2,1.3c1,2.8,3.7,4.5,7.1,4.5c3.6,0,7.4-2.1,7.4-6.8s-3.8-6.8-7.3-6.8L144.2,17.2z"/>
<path class="st0" d="M159.5,12c0.9,0,1.7-0.8,1.7-1.7c0,0,0,0,0,0c0-0.9-0.7-1.7-1.7-1.7c-0.9,0-1.7,0.7-1.7,1.7
	C157.8,11.2,158.5,12,159.5,12C159.5,12,159.5,12,159.5,12z"/>
<rect x="158.3" y="15.1" class="st0" width="2.5" height="15.4"/>
<path class="st0" d="M24.3,8.4c-6.6,0-11,5-11,11.3S17.3,31,24.2,31c3.9,0.2,7.7-1.9,9.6-5.3l-2.5-1.6c-1.4,2.7-4.1,4.3-7.1,4.2
	c-4.4,0-8-3.5-8.1-7.9c0-0.1,0-0.2,0-0.2h18.3v-0.8C34.4,12.4,29.9,8.4,24.3,8.4z M16.2,17.7c0.7-3.9,4.1-6.7,8-6.7
	c3.8-0.1,7.1,2.8,7.4,6.7H16.2z"/>
<polygon class="st0" points="0,8.8 0,30.7 2.8,30.7 2.8,11.4 13.2,11.4 13.2,8.8 "/>
<path class="st0" d="M126.5,19.4c0-7-4.6-11-10.2-11c-6.6,0-11,5-11,11.3S109.4,31,116.2,31c3.9,0.2,7.7-1.9,9.6-5.3l-2.5-1.6
	c-1.4,2.7-4.1,4.3-7.2,4.2c-4.4,0-8-3.5-8.1-7.9c0-0.1,0-0.2,0-0.2h18.3L126.5,19.4z M108.2,17.7c0.7-3.9,4.1-6.7,8-6.7
	c3.8-0.1,7.1,2.8,7.4,6.7H108.2z"/>
<path class="st0" d="M94.3,8.5c-3-0.1-5.7,1.4-7.3,3.9c-1.3-2.5-3.9-4.1-6.7-3.9c-2.6-0.1-5,1.1-6.4,3.2V8.8H71v21.9h2.8V16.5
	c0.1-3.1,2.7-5.5,5.8-5.4c3.6,0,5.5,2.7,5.5,6.2v13.3H88V16.9c0-4.3,3.1-5.8,5.9-5.8c3.5,0,5.6,2.7,5.6,6.2v13.3h2.9V17.3
	C102.3,11.9,99.3,8.5,94.3,8.5z"/>
<path class="st0" d="M55.7,11.4c-2-1.9-4.6-2.9-7.4-2.9c-6.5,0-11.1,4.9-11.1,11.3c-0.2,6,4.5,11,10.4,11.3c0.2,0,0.4,0,0.7,0
	c2.7,0,5.4-1,7.4-2.9v2.5h2.8V8.8h-2.8V11.4z M48.1,28.2c-4.7,0-8.1-3.8-8.1-8.4s3.3-8.5,8.1-8.5s8,3.3,8,8.5S52.9,28.2,48.1,28.2z"
	/>
<rect x="63.3" y="0" class="st0" width="2.8" height="30.7"/>
</svg>
