<svg id="图层_1" data-name="图层 1" xmlns="http://www.w3.org/2000/svg" viewBox="0 0 161.2 31.08"><defs><style>.cls-1{fill:#231815;}</style></defs><title>realme5i_黑</title><path class="cls-1" d="M144.25,17.23v-.14l.38-5.83H154V8.8H142.26l-.8,11,6.08.15c2.87,0,4.72,1.66,4.72,4.22s-1.88,4.19-4.79,4.19c-2.46,0-4.22-1.16-4.86-3.2l-2.23,1.27c1,2.79,3.71,4.52,7.09,4.52,3.57,0,7.41-2.12,7.41-6.78s-3.77-6.78-7.28-6.78Z" transform="translate(0 0)"/><path class="cls-1" d="M159.51,12a1.69,1.69,0,0,0,1.69-1.69A1.71,1.71,0,1,0,159.51,12Z" transform="translate(0 0)"/><rect class="cls-1" x="158.26" y="15.09" width="2.46" height="15.44"/><path class="cls-1" d="M24.27,8.38c-6.62,0-11,5-11,11.33S17.34,31,24.19,31a10.51,10.51,0,0,0,9.61-5.31L31.34,24.1a7.72,7.72,0,0,1-7.15,4.25,8,8,0,0,1-8.08-8.16H34.46V19.4C34.41,12.42,29.89,8.38,24.27,8.38ZM16.2,17.69a8,8,0,0,1,8-6.67,7.27,7.27,0,0,1,7.41,6.67Z" transform="translate(0 0)"/><polygon class="cls-1" points="0 8.78 0 30.73 2.85 30.73 2.85 11.41 13.17 11.41 13.17 8.78 0 8.78"/><path class="cls-1" d="M126.48,19.4c0-7-4.57-11-10.18-11-6.63,0-11,5-11,11.33S109.36,31,116.21,31a10.51,10.51,0,0,0,9.61-5.31l-2.46-1.58a7.72,7.72,0,0,1-7.15,4.25,8,8,0,0,1-8.08-8.16h18.35Zm-18.26-1.71a8,8,0,0,1,8-6.67,7.28,7.28,0,0,1,7.42,6.67Z" transform="translate(0 0)"/><path class="cls-1" d="M94.3,8.47A8.34,8.34,0,0,0,87,12.42a7.14,7.14,0,0,0-6.72-3.95,7.5,7.5,0,0,0-6.45,3.21V8.78H71v21.9H73.8V16.55a5.69,5.69,0,0,1,5.8-5.45c3.59,0,5.53,2.68,5.53,6.24V30.68H88V16.9c0-4.26,3.12-5.8,5.88-5.8,3.51,0,5.57,2.68,5.57,6.24V30.68h2.86V17.34C102.29,11.94,99.35,8.47,94.3,8.47Z" transform="translate(0 0)"/><path class="cls-1" d="M55.67,11.37a10.6,10.6,0,0,0-7.37-2.9c-6.5,0-11.11,4.92-11.11,11.33A10.87,10.87,0,0,0,48.3,31.08a10.43,10.43,0,0,0,7.37-2.9v2.55h2.81V8.82H55.67ZM48.12,28.22c-4.74,0-8.07-3.77-8.07-8.42s3.33-8.48,8.07-8.48,8,3.34,8,8.48S52.86,28.22,48.12,28.22Z" transform="translate(0 0)"/><rect class="cls-1" x="63.29" width="2.85" height="30.68"/></svg>